<svg width="71" height="71" viewBox="0 0 71 71" fill="none" xmlns="http://www.w3.org/2000/svg">
<path d="M70.9834 17.7545C70.965 12.8544 66.9778 8.89698 62.0776 8.91542C58.5917 8.92845 55.4364 10.9816 54.0125 14.1634L48.6219 13.262C47.4148 13.0602 46.2723 13.8737 46.068 15.0803C45.8631 16.2906 46.6797 17.4373 47.8905 17.6394L53.3094 18.5442C53.6056 21.845 55.7169 24.7055 58.7837 25.9616L56.6233 42.2581C52.1733 42.7812 48.8153 46.5457 48.8022 51.0263V51.0596L23.2294 57.8027C21.8654 55.3711 19.4329 53.7265 16.6682 53.3665L12.1388 17.1157C14.2935 16.2575 16.0278 14.5916 16.9721 12.4732L21.6409 13.2525C22.8489 13.4542 23.9917 12.6383 24.1932 11.4302C24.3947 10.2225 23.5792 9.08 22.3715 8.87819L17.6686 8.09236C17.2498 3.22247 12.9623 -0.385861 8.09237 0.0330866C3.22247 0.451896 -0.385862 4.73925 0.0330866 9.60914C0.390343 13.7629 3.59803 17.1039 7.73358 17.6303L12.2674 53.8744C7.71071 55.6765 5.47747 60.8313 7.27956 65.388C9.08165 69.9447 14.2364 72.1779 18.7932 70.3759C22.1815 69.0358 24.4061 65.7606 24.4028 62.117V62.0837L49.9756 55.3406C52.3575 59.6088 57.7486 61.1379 62.0168 58.7561C66.285 56.3741 67.8141 50.9831 65.4323 46.7149C64.4473 44.9498 62.8877 43.5751 61.0129 42.8193L63.1734 26.5227C67.6189 25.9945 70.9709 22.2314 70.9834 17.7545ZM8.87592 13.3183C6.42586 13.3183 4.43967 11.3321 4.43967 8.88201C4.43967 6.43196 6.42586 4.44576 8.87592 4.44576C11.326 4.44576 13.3122 6.43196 13.3122 8.88201C13.3122 11.3321 11.326 13.3183 8.87592 13.3183ZM15.5303 66.5532C13.0802 66.5532 11.094 64.567 11.094 62.117C11.094 59.6669 13.0802 57.6807 15.5303 57.6807C17.9803 57.6807 19.9665 59.6669 19.9665 62.117C19.9665 64.567 17.9803 66.5532 15.5303 66.5532ZM62.1109 51.0263C62.1109 53.4764 60.1247 55.4626 57.6747 55.4626C55.2246 55.4626 53.2384 53.4764 53.2384 51.0263C53.2384 48.5763 55.2246 46.5901 57.6747 46.5901C60.1247 46.5901 62.1109 48.5763 62.1109 51.0263ZM57.6747 17.7545C57.6747 15.3044 59.6609 13.3183 62.1109 13.3183C64.561 13.3183 66.5472 15.3044 66.5472 17.7545C66.5472 20.2046 64.561 22.1907 62.1109 22.1907C59.6609 22.1907 57.6747 20.2046 57.6747 17.7545Z" fill="#DFA437"/>
<path d="M37.3195 13.6227C37.1178 14.8311 37.9339 15.9741 39.1423 16.1758C40.3507 16.3774 41.4937 15.5613 41.6954 14.3529C41.897 13.1446 41.0809 12.0015 39.8725 11.7999C38.6641 11.5982 37.5211 12.4143 37.3195 13.6227Z" fill="white"/>
<path d="M28.5551 12.1607C28.3532 13.369 29.169 14.5121 30.3773 14.714C31.5855 14.9159 32.7287 14.1001 32.9306 12.8918C33.1324 11.6836 32.3166 10.5404 31.1084 10.3385C29.9001 10.1367 28.757 10.9525 28.5551 12.1607Z" fill="white"/>
</svg>
