<svg width="74" height="80" viewBox="0 0 74 80" fill="none" xmlns="http://www.w3.org/2000/svg">
<path d="M57.4987 35H15.832C14.452 35 13.332 33.88 13.332 32.5C13.332 31.12 14.452 30 15.832 30H57.4987C58.8787 30 59.9987 31.12 59.9987 32.5C59.9987 33.88 58.8787 35 57.4987 35Z" fill="#DFA437"/>
<path d="M36.6667 13.3333C32.99 13.3333 30 10.3433 30 6.66667C30 2.99 32.99 0 36.6667 0C40.3433 0 43.3333 2.99 43.3333 6.66667C43.3333 10.3433 40.3433 13.3333 36.6667 13.3333ZM36.6667 5C35.75 5 35 5.74667 35 6.66667C35 7.58667 35.75 8.33333 36.6667 8.33333C37.5833 8.33333 38.3333 7.58667 38.3333 6.66667C38.3333 5.74667 37.5833 5 36.6667 5Z" fill="#DFA437"/>
<path d="M47.4987 26.6665C46.1187 26.6665 44.9987 25.5465 44.9987 24.1665C44.9987 22.7865 43.8754 21.6665 42.4987 21.6665H30.832C29.4554 21.6665 28.332 22.7865 28.332 24.1665C28.332 25.5465 27.212 26.6665 25.832 26.6665C24.452 26.6665 23.332 25.5465 23.332 24.1665C23.332 20.0298 26.6987 16.6665 30.832 16.6665H42.4987C46.632 16.6665 49.9987 20.0298 49.9987 24.1665C49.9987 25.5465 48.8787 26.6665 47.4987 26.6665Z" fill="white"/>
<path d="M63.333 66.6665C66.0944 66.6665 68.333 64.4279 68.333 61.6665C68.333 58.9051 66.0944 56.6665 63.333 56.6665C60.5716 56.6665 58.333 58.9051 58.333 61.6665C58.333 64.4279 60.5716 66.6665 63.333 66.6665Z" fill="#DFA437"/>
<path d="M70.832 80C69.452 80 68.332 78.88 68.332 77.5C68.332 76.12 67.2087 75 65.832 75H60.832C59.4554 75 58.332 76.12 58.332 77.5C58.332 78.88 57.212 80 55.832 80C54.452 80 53.332 78.88 53.332 77.5C53.332 73.3633 56.6987 70 60.832 70H65.832C69.9654 70 73.332 73.3633 73.332 77.5C73.332 78.88 72.212 80 70.832 80Z" fill="white"/>
<path d="M36.666 66.6665C39.4274 66.6665 41.666 64.4279 41.666 61.6665C41.666 58.9051 39.4274 56.6665 36.666 56.6665C33.9046 56.6665 31.666 58.9051 31.666 61.6665C31.666 64.4279 33.9046 66.6665 36.666 66.6665Z" fill="#DFA437"/>
<path d="M44.166 80C42.786 80 41.666 78.88 41.666 77.5C41.666 76.12 40.5427 75 39.166 75H34.166C32.7893 75 31.666 76.12 31.666 77.5C31.666 78.88 30.546 80 29.166 80C27.786 80 26.666 78.88 26.666 77.5C26.666 73.3633 30.0327 70 34.166 70H39.166C43.2993 70 46.666 73.3633 46.666 77.5C46.666 78.88 45.546 80 44.166 80Z" fill="white"/>
<path d="M10 66.6665C12.7614 66.6665 15 64.4279 15 61.6665C15 58.9051 12.7614 56.6665 10 56.6665C7.23858 56.6665 5 58.9051 5 61.6665C5 64.4279 7.23858 66.6665 10 66.6665Z" fill="#DFA437"/>
<path d="M17.5 80C16.12 80 15 78.88 15 77.5C15 76.12 13.8767 75 12.5 75H7.5C6.12333 75 5 76.12 5 77.5C5 78.88 3.88 80 2.5 80C1.12 80 0 78.88 0 77.5C0 73.3633 3.36667 70 7.5 70H12.5C16.6333 70 20 73.3633 20 77.5C20 78.88 18.88 80 17.5 80Z" fill="white"/>
<path d="M49.1689 53.3334C49.0556 53.3334 48.9423 53.3267 48.8256 53.31C47.4589 53.1234 46.5023 51.8634 46.6856 50.4934L49.1856 32.16C49.3756 30.79 50.6456 29.8167 52.0023 30.02C53.3689 30.2067 54.3256 31.4667 54.1423 32.8367L51.6423 51.17C51.4689 52.4267 50.3989 53.3334 49.1689 53.3334Z" fill="#DFA437"/>
<path d="M24.1626 53.3335C22.9326 53.3335 21.8626 52.4269 21.6893 51.1735L19.1893 32.8402C19.0026 31.4702 19.9593 30.2102 21.326 30.0235C22.6726 29.8235 23.9526 30.7902 24.1426 32.1635L26.6426 50.4969C26.8293 51.8669 25.8726 53.1269 24.5026 53.3135C24.3893 53.3269 24.276 53.3335 24.1626 53.3335Z" fill="#DFA437"/>
</svg>
