<svg width="24" height="24" viewBox="0 0 24 24" fill="none" xmlns="http://www.w3.org/2000/svg">
<path d="M20.5207 0.639053L12 9.15976L3.47929 0.639053C2.62722 -0.213018 1.49112 -0.213018 0.639053 0.639053C-0.213018 1.49112 -0.213018 2.62722 0.639053 3.47929L9.15976 12L0.639053 20.5207C-0.213018 21.3728 -0.213018 22.5089 0.639053 23.3609C1.49112 24.213 2.62722 24.213 3.47929 23.3609L12 14.8402L20.5207 23.3609C21.3728 24.213 22.5089 24.213 23.3609 23.3609C24.213 22.5089 24.213 21.3728 23.3609 20.5207L14.8402 12L23.3609 3.47929C24.213 2.62722 24.213 1.49112 23.3609 0.639053C22.5089 -0.213018 21.3728 -0.213018 20.5207 0.639053Z" fill="#939393"/>
</svg>
