<svg width="10" height="11" viewBox="0 0 10 11" fill="none" xmlns="http://www.w3.org/2000/svg">
<path d="M9.06667 7.29313C8.42667 7.29313 7.78667 7.18647 7.14667 6.97313C6.98667 6.9198 6.77331 6.97313 6.61333 7.0798L5.44 8.25313C3.94669 7.50646 2.72 6.22647 1.92 4.73313L3.09333 3.5598C3.25333 3.3998 3.30667 3.18647 3.2 3.02646C3.04 2.4398 2.93333 1.7998 2.93333 1.1598C2.93333 0.839798 2.72 0.626465 2.4 0.626465H0.533333C0.213333 0.626465 0 0.839798 0 1.1598C0 6.17313 4.05333 10.2265 9.06667 10.2265C9.38667 10.2265 9.6 10.0131 9.6 9.69313V7.82647C9.6 7.50646 9.38667 7.29313 9.06667 7.29313Z" fill="#3C4858"/>
</svg>
