<svg width="72" height="67" viewBox="0 0 72 67" fill="none" xmlns="http://www.w3.org/2000/svg">
<path d="M14.7317 6.25244C14.3813 6.25244 14.0312 6.1186 13.7642 5.85104L11.2506 3.33295C10.7171 2.79852 10.7179 1.93295 11.2524 1.39948C11.7868 0.866272 12.6524 0.866819 13.1858 1.40125L15.6994 3.91934C16.2329 4.45377 16.2321 5.31934 15.6976 5.85282C15.4306 6.11928 15.081 6.25244 14.7317 6.25244Z" fill="#EB5757"/>
<path d="M59.7821 51.3857C59.4317 51.3857 59.0815 51.2518 58.8145 50.9843L56.3009 48.4662C55.7674 47.9318 55.7683 47.0662 56.3027 46.5327C56.8371 45.9995 57.7027 46.0001 58.2362 46.5345L60.7498 49.0526C61.2832 49.587 61.2824 50.4526 60.748 50.9861C60.4811 51.2525 60.1315 51.3857 59.7821 51.3857Z" fill="#EB5757"/>
<path d="M57.2685 6.25245C56.9189 6.25245 56.5696 6.11929 56.3027 5.85296C55.7683 5.31948 55.7674 4.45392 56.3009 3.91948L58.8145 1.4014C59.3477 0.866963 60.2135 0.866143 60.748 1.39962C61.2824 1.9331 61.2832 2.79866 60.7498 3.3331L58.2362 5.85118C57.9692 6.1186 57.6188 6.25245 57.2685 6.25245Z" fill="#EB5757"/>
<path d="M12.2182 51.3857C11.8686 51.3857 11.5192 51.2525 11.2524 50.9862C10.7179 50.4527 10.7171 49.5871 11.2506 49.0527L13.7642 46.5346C14.2975 46.0002 15.1634 45.9994 15.6976 46.5329C16.2321 47.0663 16.2329 47.9319 15.6994 48.4663L13.1858 50.9844C12.9188 51.2518 12.5683 51.3857 12.2182 51.3857Z" fill="#EB5757"/>
<path d="M69.6328 27.56H66.0781C65.3232 27.56 64.7109 26.9479 64.7109 26.1928C64.7109 25.4377 65.3232 24.8256 66.0781 24.8256H69.6328C70.3878 24.8256 71 25.4377 71 26.1928C71 26.9479 70.3878 27.56 69.6328 27.56Z" fill="#EB5757"/>
<path d="M5.92188 27.56H2.36719C1.61223 27.56 1 26.9479 1 26.1928C1 25.4377 1.61223 24.8256 2.36719 24.8256H5.92188C6.67684 24.8256 7.28906 25.4377 7.28906 26.1928C7.28906 26.9479 6.67684 27.56 5.92188 27.56Z" fill="#EB5757"/>
<path d="M42.0525 27.6839C44.0828 25.9631 45.3734 23.3954 45.3734 20.5318C45.3734 15.3633 41.1685 11.1583 35.9998 11.1583C30.8312 11.1583 26.6263 15.3632 26.6263 20.5318C26.6263 23.3954 27.917 25.9631 29.9472 27.6839C26.5624 28.8997 24.1351 32.1416 24.1351 35.9398V39.8602C24.1351 40.6153 24.7473 41.2274 25.5023 41.2274H46.4972C47.2522 41.2274 47.8644 40.6153 47.8644 39.8602V35.9398C47.8646 32.1416 45.4374 28.8997 42.0525 27.6839ZM29.3608 20.5318C29.3608 16.871 32.339 13.8926 36 13.8926C39.6609 13.8926 42.6392 16.8709 42.6392 20.5318C42.6392 24.1927 39.6607 27.1709 36 27.1709C32.3392 27.1709 29.3608 24.1926 29.3608 20.5318ZM45.1302 38.4928H26.8697V35.9396C26.8697 32.6123 29.5768 29.9053 32.9041 29.9053H39.096C42.4233 29.9053 45.1303 32.6123 45.1303 35.9396L45.1302 38.4928Z" fill="#EB5757"/>
<path d="M60.4097 27.5604C59.8389 27.5604 59.3152 27.1921 59.1239 26.6538C58.9356 26.1243 59.0949 25.5154 59.5253 25.1513C59.9742 24.7715 60.6318 24.7242 61.1312 25.0331C61.6101 25.3294 61.8613 25.9088 61.751 26.4613C61.6248 27.0925 61.0529 27.5604 60.4097 27.5604Z" fill="#EB5757"/>
<path d="M60.1597 30.9971C59.422 30.831 58.6912 31.2933 58.5253 32.03C56.7001 40.1232 50.2774 46.2316 40.904 48.7891C40.3091 48.9514 39.8967 49.4916 39.8967 50.108V55.5923H32.1031V50.108C32.1031 49.4916 31.6905 48.9514 31.0958 48.7891C19.7268 45.6872 12.9393 37.5924 12.9393 27.1352C12.9393 14.4265 23.2842 4.08727 35.9999 4.08727C46.2099 4.08727 55.0737 10.6371 58.0563 20.3856C58.2773 21.1078 59.0426 21.5139 59.7637 21.2931C60.4857 21.0721 60.892 20.3077 60.6711 19.5857C59.0899 14.4176 55.8263 9.77436 51.4818 6.51129C46.9888 3.13653 41.6352 1.35276 35.9999 1.35276C21.7765 1.35276 10.2049 12.9186 10.2049 27.135C10.2049 32.7543 12.0108 37.9551 15.4276 42.1751C18.7543 46.284 23.5592 49.3688 29.3688 51.1364V55.5923H29.3511C28.5962 55.5923 27.9839 56.2044 27.9839 56.9595C27.9839 57.7146 28.5962 58.3267 29.3511 58.3267H29.3688V64.1702C29.3688 64.9253 29.981 65.5374 30.7359 65.5374H41.2638C42.0188 65.5374 42.631 64.9253 42.631 64.1702V58.3267H42.6487C43.4036 58.3267 44.0159 57.7146 44.0159 56.9595C44.0159 56.2044 43.4036 55.5923 42.6487 55.5923H42.631V51.1364C52.4663 48.1445 59.2049 41.4464 61.1926 32.6314C61.3586 31.8949 60.8964 31.1632 60.1597 30.9971ZM39.8967 62.8032H32.1031V58.3268H39.8967V62.8032Z" fill="#EB5757"/>
<path d="M14.7317 6.25244C14.3813 6.25244 14.0312 6.1186 13.7642 5.85104L11.2506 3.33295C10.7171 2.79852 10.7179 1.93295 11.2524 1.39948C11.7868 0.866272 12.6524 0.866819 13.1858 1.40125L15.6994 3.91934C16.2329 4.45377 16.2321 5.31934 15.6976 5.85282C15.4306 6.11928 15.081 6.25244 14.7317 6.25244Z" stroke="#EB5757" stroke-width="2"/>
<path d="M59.7821 51.3857C59.4317 51.3857 59.0815 51.2518 58.8145 50.9843L56.3009 48.4662C55.7674 47.9318 55.7683 47.0662 56.3027 46.5327C56.8371 45.9995 57.7027 46.0001 58.2362 46.5345L60.7498 49.0526C61.2832 49.587 61.2824 50.4526 60.748 50.9861C60.4811 51.2525 60.1315 51.3857 59.7821 51.3857Z" stroke="#EB5757" stroke-width="2"/>
<path d="M57.2685 6.25245C56.9189 6.25245 56.5696 6.11929 56.3027 5.85296C55.7683 5.31948 55.7674 4.45392 56.3009 3.91948L58.8145 1.4014C59.3477 0.866963 60.2135 0.866143 60.748 1.39962C61.2824 1.9331 61.2832 2.79866 60.7498 3.3331L58.2362 5.85118C57.9692 6.1186 57.6188 6.25245 57.2685 6.25245Z" stroke="#EB5757" stroke-width="2"/>
<path d="M12.2182 51.3857C11.8686 51.3857 11.5192 51.2525 11.2524 50.9862C10.7179 50.4527 10.7171 49.5871 11.2506 49.0527L13.7642 46.5346C14.2975 46.0002 15.1634 45.9994 15.6976 46.5329C16.2321 47.0663 16.2329 47.9319 15.6994 48.4663L13.1858 50.9844C12.9188 51.2518 12.5683 51.3857 12.2182 51.3857Z" stroke="#EB5757" stroke-width="2"/>
<path d="M69.6328 27.56H66.0781C65.3232 27.56 64.7109 26.9479 64.7109 26.1928C64.7109 25.4377 65.3232 24.8256 66.0781 24.8256H69.6328C70.3878 24.8256 71 25.4377 71 26.1928C71 26.9479 70.3878 27.56 69.6328 27.56Z" stroke="#EB5757" stroke-width="2"/>
<path d="M5.92188 27.56H2.36719C1.61223 27.56 1 26.9479 1 26.1928C1 25.4377 1.61223 24.8256 2.36719 24.8256H5.92188C6.67684 24.8256 7.28906 25.4377 7.28906 26.1928C7.28906 26.9479 6.67684 27.56 5.92188 27.56Z" stroke="#EB5757" stroke-width="2"/>
<path d="M42.0525 27.6839C44.0828 25.9631 45.3734 23.3954 45.3734 20.5318C45.3734 15.3633 41.1685 11.1583 35.9998 11.1583C30.8312 11.1583 26.6263 15.3632 26.6263 20.5318C26.6263 23.3954 27.917 25.9631 29.9472 27.6839C26.5624 28.8997 24.1351 32.1416 24.1351 35.9398V39.8602C24.1351 40.6153 24.7473 41.2274 25.5023 41.2274H46.4972C47.2522 41.2274 47.8644 40.6153 47.8644 39.8602V35.9398C47.8646 32.1416 45.4374 28.8997 42.0525 27.6839ZM29.3608 20.5318C29.3608 16.871 32.339 13.8926 36 13.8926C39.6609 13.8926 42.6392 16.8709 42.6392 20.5318C42.6392 24.1927 39.6607 27.1709 36 27.1709C32.3392 27.1709 29.3608 24.1926 29.3608 20.5318ZM45.1302 38.4928H26.8697V35.9396C26.8697 32.6123 29.5768 29.9053 32.9041 29.9053H39.096C42.4233 29.9053 45.1303 32.6123 45.1303 35.9396L45.1302 38.4928Z" stroke="#EB5757" stroke-width="2"/>
<path d="M60.4097 27.5604C59.8389 27.5604 59.3152 27.1921 59.1239 26.6538C58.9356 26.1243 59.0949 25.5154 59.5253 25.1513C59.9742 24.7715 60.6318 24.7242 61.1312 25.0331C61.6101 25.3294 61.8613 25.9088 61.751 26.4613C61.6248 27.0925 61.0529 27.5604 60.4097 27.5604Z" stroke="#EB5757" stroke-width="2"/>
<path d="M60.1597 30.9971C59.422 30.831 58.6912 31.2933 58.5253 32.03C56.7001 40.1232 50.2774 46.2316 40.904 48.7891C40.3091 48.9514 39.8967 49.4916 39.8967 50.108V55.5923H32.1031V50.108C32.1031 49.4916 31.6905 48.9514 31.0958 48.7891C19.7268 45.6872 12.9393 37.5924 12.9393 27.1352C12.9393 14.4265 23.2842 4.08727 35.9999 4.08727C46.2099 4.08727 55.0737 10.6371 58.0563 20.3856C58.2773 21.1078 59.0426 21.5139 59.7637 21.2931C60.4857 21.0721 60.892 20.3077 60.6711 19.5857C59.0899 14.4176 55.8263 9.77436 51.4818 6.51129C46.9888 3.13653 41.6352 1.35276 35.9999 1.35276C21.7765 1.35276 10.2049 12.9186 10.2049 27.135C10.2049 32.7543 12.0108 37.9551 15.4276 42.1751C18.7543 46.284 23.5592 49.3688 29.3688 51.1364V55.5923H29.3511C28.5962 55.5923 27.9839 56.2044 27.9839 56.9595C27.9839 57.7146 28.5962 58.3267 29.3511 58.3267H29.3688V64.1702C29.3688 64.9253 29.981 65.5374 30.7359 65.5374H41.2638C42.0188 65.5374 42.631 64.9253 42.631 64.1702V58.3267H42.6487C43.4036 58.3267 44.0159 57.7146 44.0159 56.9595C44.0159 56.2044 43.4036 55.5923 42.6487 55.5923H42.631V51.1364C52.4663 48.1445 59.2049 41.4464 61.1926 32.6314C61.3586 31.8949 60.8964 31.1632 60.1597 30.9971ZM39.8967 62.8032H32.1031V58.3268H39.8967V62.8032Z" stroke="#EB5757" stroke-width="2"/>
</svg>
