<svg width="75" height="75" viewBox="0 0 75 75" fill="none" xmlns="http://www.w3.org/2000/svg">
<path d="M57.3395 13.9515C57.8814 13.4716 58.5495 13.2504 59.2252 13.317C59.898 13.3833 60.5385 13.7301 61.0474 14.3123C61.6252 14.9672 62.1772 15.6476 62.7035 16.3536C67.7592 23.0781 67.1074 33.4194 61.2732 39.5141L60.7722 40.0151C59.7284 41.0588 58.265 41.1499 57.2021 40.2144C56.1403 39.2848 56.2079 37.7259 57.1206 36.6338C57.2878 36.4281 57.4607 36.2232 57.6319 36.0205L57.6519 35.9969C57.8181 35.8003 57.9825 35.6056 58.1438 35.4085L58.148 35.4034C61.4797 31.4395 62.074 25.0311 59.4532 20.5903L59.4506 20.5858C58.9033 19.6364 58.2003 18.7767 57.4731 17.8873L57.2846 17.6566C56.8019 17.0739 56.5171 16.4197 56.511 15.7565C56.5049 15.0813 56.7889 14.4554 57.3333 13.957L57.3395 13.9515Z" fill="white"/>
<path fill-rule="evenodd" clip-rule="evenodd" d="M65.5607 6.07968L65.6008 6.10669L67.0695 7.57537L67.4246 7.93055L68.8933 9.39924L68.9203 9.43925C69.1103 9.72069 69.3066 10.0038 69.5044 10.2891C70.0005 11.0045 70.5064 11.7343 70.948 12.4885C75.9505 20.9637 76.3943 29.7732 71.871 38.4718C67.079 47.6692 59.1713 52.4451 48.7924 52.8181C43.157 53.0248 38.0339 51.3032 33.3947 48.2061L33.3924 48.2046C32.9299 47.8921 32.4092 47.5379 31.9778 47.1065C31.7427 46.8714 31.6515 46.8663 31.6448 46.8663C31.6448 46.8663 31.5535 46.8636 31.318 47.1106C30.5676 47.8991 29.7958 48.6709 29.0291 49.4376L29.0268 49.4399C28.2577 50.209 27.4939 50.973 26.7528 51.7519L26.744 51.7607C26.7069 51.7977 26.643 51.896 26.5997 52.0259C26.5797 52.0861 26.5689 52.1389 26.5655 52.1785C26.5636 52.2001 26.5643 52.2124 26.5647 52.2167C26.9921 53.554 27.0662 54.8239 26.7757 56.0172C26.485 57.211 25.8376 58.2943 24.8746 59.2706L24.8599 59.2854L24.856 59.2893C20.3471 63.8235 15.8485 68.3473 11.2997 72.8455L11.2984 72.8468C9.84271 74.2757 8.10086 75.0017 6.37249 75C4.82434 74.9985 3.31903 74.4127 2.07671 73.2785L2.07263 73.2825C2.01181 73.2243 1.95229 73.1655 1.89408 73.1059C1.83454 73.0477 1.77565 72.9882 1.71745 72.9274L1.72153 72.9233C0.587329 71.681 0.00154903 70.1757 3.07554e-06 68.6275C-0.00172443 66.8991 0.724304 65.1573 2.15316 63.7016L2.15447 63.7003C6.65269 59.1515 11.1765 54.6529 15.7107 50.144L15.7146 50.1401L15.7279 50.1268L15.7294 50.1254C16.7057 49.1624 17.789 48.515 18.9828 48.2244C20.1761 47.9338 21.4461 48.0079 22.7833 48.4353C22.7876 48.4357 22.7999 48.4364 22.8215 48.4345C22.8611 48.4311 22.9139 48.4203 22.9741 48.4003C23.104 48.357 23.2023 48.2931 23.2393 48.256L23.2482 48.2472C24.027 47.5061 24.791 46.7423 25.5601 45.9732L25.5624 45.9709C26.3291 45.2042 27.1009 44.4324 27.8894 43.682C28.1364 43.4465 28.1337 43.3552 28.1337 43.3552C28.1337 43.3485 28.1286 43.2573 27.8935 43.0222C27.4621 42.5908 27.1079 42.0701 26.7954 41.6076L26.7939 41.6053C23.6968 36.9661 21.9752 31.843 22.1819 26.2076C22.5549 15.8287 27.3308 7.92097 36.5282 3.12904C45.2268 -1.39426 54.0363 -0.950456 62.5115 4.05203C63.2657 4.49356 63.9955 4.99955 64.7109 5.49557C64.9962 5.69344 65.2793 5.88971 65.5607 6.07968ZM33.3813 41.6763C33.4314 41.7255 33.4817 41.7744 33.5321 41.8231L33.5297 41.8255C41.6779 49.8886 55.3087 49.7998 63.4936 41.5659C71.2187 33.7955 71.9252 21.7895 65.5757 13.4222C65.3839 13.1695 65.1857 12.92 64.981 12.6741C64.5837 12.1968 64.1621 11.7328 63.7163 11.2837C63.2672 10.8379 62.8032 10.4163 62.3259 10.019C62.08 9.81432 61.8305 9.61607 61.5778 9.42426C53.2105 3.07483 41.2045 3.78132 33.4341 11.5064C25.2002 19.6913 25.1114 33.3222 33.1745 41.4703L33.1769 41.4679C33.2256 41.5183 33.2745 41.5686 33.3237 41.6187L33.3523 41.6477L33.3813 41.6763ZM5.06699 68.4881C5.10079 68.1208 5.30213 67.6899 5.75037 67.2416L17.1076 55.8844C17.3645 55.6275 17.6177 55.3714 17.8699 55.1164L17.8714 55.1149C18.3711 54.6096 18.8665 54.1087 19.376 53.6158C19.7666 53.2474 20.1764 53.0761 20.5402 53.0555C20.8981 53.0352 21.2491 53.1577 21.55 53.4488L21.5512 53.4501C21.8423 53.7509 21.9648 54.1019 21.9445 54.4598C21.9239 54.8236 21.7526 55.2334 21.3842 55.624C20.8913 56.1335 20.3904 56.6289 19.8851 57.1286L19.8836 57.1301C19.6286 57.3823 19.3725 57.6355 19.1156 57.8924L7.75839 69.2496C7.31014 69.6979 6.87921 69.8992 6.51193 69.933C6.15803 69.9656 5.80174 69.849 5.46541 69.5346C5.15101 69.1983 5.03442 68.842 5.06699 68.4881Z" fill="#DFA437"/>
</svg>
