<svg width="75" height="75" viewBox="0 0 75 75" fill="none" xmlns="http://www.w3.org/2000/svg">
<path d="M68.4082 8.93555H57.2754V2.19727C57.2754 0.983789 56.2916 0 55.0781 0C53.8646 0 52.8809 0.983789 52.8809 2.19727V8.93555H22.1191V2.19727C22.1191 0.983789 21.1354 0 19.9219 0C18.7084 0 17.7246 0.983789 17.7246 2.19727V8.93555H6.5918C2.95708 8.93555 0 11.8926 0 15.5273V68.4082C0 72.0429 2.95708 75 6.5918 75H68.4082C72.0429 75 75 72.0429 75 68.4082V15.5273C75 11.8926 72.0429 8.93555 68.4082 8.93555ZM6.5918 13.3301H17.7246V18.1025C15.1671 19.0096 13.3301 21.4519 13.3301 24.3164C13.3301 27.9511 16.2872 30.9082 19.9219 30.9082C23.5566 30.9082 26.5137 27.9511 26.5137 24.3164C26.5137 21.4519 24.6766 19.0096 22.1191 18.1025V13.3301H52.8809V18.1025C50.3234 19.0096 48.4863 21.4519 48.4863 24.3164C48.4863 27.9511 51.4434 30.9082 55.0781 30.9082C58.7128 30.9082 61.6699 27.9511 61.6699 24.3164C61.6699 21.4519 59.8329 19.0096 57.2754 18.1025V13.3301H68.4082C69.6198 13.3301 70.6055 14.3158 70.6055 15.5273V35.4492H4.39453V15.5273C4.39453 14.3158 5.38022 13.3301 6.5918 13.3301ZM19.9219 22.1191C21.1334 22.1191 22.1191 23.1048 22.1191 24.3164C22.1191 25.528 21.1334 26.5137 19.9219 26.5137C18.7103 26.5137 17.7246 25.528 17.7246 24.3164C17.7246 23.1048 18.7103 22.1191 19.9219 22.1191ZM55.0781 22.1191C56.2897 22.1191 57.2754 23.1048 57.2754 24.3164C57.2754 25.528 56.2897 26.5137 55.0781 26.5137C53.8666 26.5137 52.8809 25.528 52.8809 24.3164C52.8809 23.1048 53.8666 22.1191 55.0781 22.1191ZM68.4082 70.6055H6.5918C5.38022 70.6055 4.39453 69.6198 4.39453 68.4082V39.8438H70.6055V68.4082C70.6055 69.6198 69.6198 70.6055 68.4082 70.6055Z" fill="#DFA437"/>
<path d="M41.8945 44.2383H33.1055C31.892 44.2383 30.9082 45.2221 30.9082 46.4355C30.9082 47.649 31.892 48.6328 33.1055 48.6328H41.8945C43.108 48.6328 44.0918 47.649 44.0918 46.4355C44.0918 45.2221 43.108 44.2383 41.8945 44.2383Z" fill="white"/>
<path d="M24.3164 44.2383H15.5273C14.3139 44.2383 13.3301 45.2221 13.3301 46.4355C13.3301 47.649 14.3139 48.6328 15.5273 48.6328H24.3164C25.5299 48.6328 26.5137 47.649 26.5137 46.4355C26.5137 45.2221 25.5299 44.2383 24.3164 44.2383Z" fill="white"/>
<path d="M24.3164 53.0273H15.5273C14.3139 53.0273 13.3301 54.0111 13.3301 55.2246C13.3301 56.4381 14.3139 57.4219 15.5273 57.4219H24.3164C25.5299 57.4219 26.5137 56.4381 26.5137 55.2246C26.5137 54.0111 25.5299 53.0273 24.3164 53.0273Z" fill="white"/>
<path d="M24.3164 61.8164H15.5273C14.3139 61.8164 13.3301 62.8002 13.3301 64.0137C13.3301 65.2271 14.3139 66.2109 15.5273 66.2109H24.3164C25.5299 66.2109 26.5137 65.2271 26.5137 64.0137C26.5137 62.8002 25.5299 61.8164 24.3164 61.8164Z" fill="white"/>
<path d="M41.8945 61.8164H33.1055C31.892 61.8164 30.9082 62.8002 30.9082 64.0137C30.9082 65.2271 31.892 66.2109 33.1055 66.2109H41.8945C43.108 66.2109 44.0918 65.2271 44.0918 64.0137C44.0918 62.8002 43.108 61.8164 41.8945 61.8164Z" fill="white"/>
<path d="M41.8945 53.0273H33.1055C31.892 53.0273 30.9082 54.0111 30.9082 55.2246C30.9082 56.4381 31.892 57.4219 33.1055 57.4219H41.8945C43.108 57.4219 44.0918 56.4381 44.0918 55.2246C44.0918 54.0111 43.108 53.0273 41.8945 53.0273Z" fill="white"/>
<path d="M59.4727 53.0273H50.6836C49.4701 53.0273 48.4863 54.0111 48.4863 55.2246C48.4863 56.4381 49.4701 57.4219 50.6836 57.4219H59.4727C60.6861 57.4219 61.6699 56.4381 61.6699 55.2246C61.6699 54.0111 60.6861 53.0273 59.4727 53.0273Z" fill="white"/>
<path d="M59.4727 44.2383H50.6836C49.4701 44.2383 48.4863 45.2221 48.4863 46.4355C48.4863 47.649 49.4701 48.6328 50.6836 48.6328H59.4727C60.6861 48.6328 61.6699 47.649 61.6699 46.4355C61.6699 45.2221 60.6861 44.2383 59.4727 44.2383Z" fill="white"/>
<path d="M59.4727 61.8164H50.6836C49.4701 61.8164 48.4863 62.8002 48.4863 64.0137C48.4863 65.2271 49.4701 66.2109 50.6836 66.2109H59.4727C60.6861 66.2109 61.6699 65.2271 61.6699 64.0137C61.6699 62.8002 60.6861 61.8164 59.4727 61.8164Z" fill="white"/>
</svg>
