<svg width="74" height="33" viewBox="0 0 74 33" fill="none" xmlns="http://www.w3.org/2000/svg">
<path d="M25.2667 23.0667C25.2667 29.2 19.9334 32.1333 13.1334 32.1333C7.66673 32.1333 4.06673 29.8667 0.733398 26.2667L5.40006 21.6C6.46673 24 9.9334 26.5333 13.1334 26.5333C15.4001 26.5333 18.4667 25.8667 18.4667 23.0667C18.4667 20.2667 15.4001 19.2 12.7334 18.4C8.06673 16.9333 2.3334 14.6667 2.3334 8.66667C2.3334 2.93333 7.66673 0 13.1334 0C17.8001 0 22.2001 2.26667 25.5334 5.86667L21.0001 10.4C19.5334 8.53333 16.6001 5.46667 13.1334 5.46667C11.1334 5.46667 9.00006 6.4 9.00006 8.53333C9.00006 11.0667 12.2001 12.1333 14.4667 12.9333C19.6667 14.5333 25.2667 16.9333 25.2667 23.0667Z" fill="white"/>
<path d="M48.0667 19.7333L44.0667 15.7333C43.6667 16.1333 43.1334 16.6667 42.4667 17.3333C39.2667 14.1333 36.6001 11.6 36.2001 11.2L35.8001 10.8C34.7334 9.73333 34.0667 8.93333 33.9334 7.86667C33.8001 7.46667 34.0667 6.66667 34.4667 6.13333C34.6001 5.86667 35.0001 5.6 35.8001 5.6C36.3334 5.46667 37.1334 5.86667 37.4001 6.4C37.6667 6.93333 37.9334 7.73333 37.0001 8.66667L40.8667 12.6667C43.9334 9.73333 43.6667 5.86667 42.2001 3.33333C40.8667 1.33333 38.3334 0 35.8001 0H35.6667C33.4001 0 31.5334 0.933333 30.0667 2.53333C28.6001 4.26667 27.9334 6.66667 28.3334 8.8C28.6001 10.8 29.5334 12.1333 30.4667 13.2L27.8001 15.7333C23.5334 19.7333 24.2001 25.0667 26.8667 28.1333C28.4667 30 30.7334 31.0667 33.1334 31.0667H33.4001C35.6667 31.0667 37.8001 30.2667 39.2667 28.6667C39.9334 28 41.2667 26.6667 42.6001 25.3333C45.6667 28.2667 48.3334 30.9333 49.0001 31.6V23.7333C48.2001 22.9333 47.2667 22.1333 46.3334 21.2C47.1334 20.6667 47.6667 20 48.0667 19.7333ZM35.4001 24.8C34.8667 25.3333 34.0667 25.6 33.2667 25.6C32.7334 25.6 31.8001 25.3333 31.1334 24.5333C30.4667 23.7333 29.6667 21.8667 31.6667 20L34.3334 17.4667C35.5334 18.6667 37.0001 20 38.4667 21.4667C37.2667 22.8 36.0667 24.1333 35.4001 24.8Z" fill="#BE800E"/>
<path d="M61.6671 23.8667H55.8005V31.6H49.1338V0.400024H61.6671C68.0671 0.400024 73.1338 5.73336 73.1338 12.1334C73.1338 18.6667 68.0671 23.8667 61.6671 23.8667ZM66.4671 12.1334C66.4671 8.80002 64.2005 5.86669 61.5338 5.86669H55.6671V18.2667H61.5338C64.2005 18.4 66.4671 15.6 66.4671 12.1334Z" fill="white"/>
</svg>
