<svg width="15" height="15" viewBox="0 0 15 15" fill="none" xmlns="http://www.w3.org/2000/svg">
<path d="M14.76 3.18496L14.2687 2.69361C14.1143 2.5391 13.9084 2.4541 13.6887 2.4541C13.4689 2.4541 13.2629 2.5391 13.1085 2.69361L6.20451 9.59752L1.89098 5.28386C1.73659 5.12959 1.53061 5.04447 1.31085 5.04447C1.09122 5.04447 0.885366 5.12959 0.730854 5.28386L0.23939 5.77508C0.0848781 5.92983 0 6.13593 0 6.35544C0 6.57508 0.0848781 6.78105 0.23939 6.93556L5.10963 11.8056C5.1161 11.8147 5.12293 11.8232 5.13085 11.8311L5.62232 12.3143C5.77671 12.4682 5.98268 12.5452 6.20415 12.5452H6.20671C6.42659 12.5452 6.63256 12.4682 6.78671 12.3143L7.27829 11.8268C7.28622 11.819 7.29293 11.8125 7.29695 11.8059L14.7599 4.34374C15.08 4.02435 15.08 3.50471 14.76 3.18496Z" fill="#ffffff"/>
</svg>
