<svg width="113" height="32" viewBox="0 0 113 32" fill="none" xmlns="http://www.w3.org/2000/svg">
<path d="M10.8663 9.86667C10.8663 12.5333 8.59968 13.7333 5.66634 13.7333C3.26634 13.7333 1.79968 12.8 0.333008 11.2L2.33301 9.2C2.86634 10.2667 4.33301 11.3333 5.66634 11.3333C6.59968 11.3333 7.93301 11.0667 7.93301 9.86667C7.93301 8.66667 6.59968 8.26667 5.53301 7.86667C3.53301 7.2 0.999675 6.26667 0.999675 3.73333C1.13301 1.33333 3.39967 0 5.79967 0C7.79968 0 9.66634 0.933333 11.133 2.53333L9.26634 4.4C8.59967 3.6 7.39967 2.26667 5.93301 2.26667C5.13301 2.26667 4.19968 2.66667 4.19968 3.6C4.19968 4.66667 5.53301 5.2 6.59967 5.46667C8.46634 6.26667 10.8663 7.33333 10.8663 9.86667Z" fill="white"/>
<path d="M23.9334 0.133331V8.13333C23.9334 10.2667 23.0001 13.6 18.3334 13.6C13.6667 13.6 12.7334 10.2667 12.7334 8.13333V0.133331H15.5334V8.13333C15.5334 8.8 15.6667 11.2 18.2001 11.2C20.7334 11.2 20.8667 8.66667 20.8667 8.13333V0.133331H23.9334Z" fill="white"/>
<path d="M34.8663 11.2V13.6H26.333V0.133331H29.2663V11.2H34.8663Z" fill="white"/>
<path d="M46.5995 11.2V13.6H36.8662V0.133331H46.1995V2.53333H39.6662V5.46666H44.9995V7.86666H39.6662V11.2H46.5995Z" fill="white"/>
<path d="M52.0666 13.6H49.2666V0.266663H52.0666V13.6Z" fill="white"/>
<path d="M70.5999 13.6H67.7999V5.73333L63.7999 13.6H62.0666L58.0666 5.73333V13.6H55.2666V0.133331H58.3333L62.9999 9.2C64.4666 6.26666 66.0666 3.06666 67.6666 0.133331H70.7333V13.6H70.5999Z" fill="white"/>
<path d="M84.3332 13.6H81.2665L80.1999 11.0667H75.6665L74.5999 13.6H71.5332L76.9999 0.133331H78.8665L84.3332 13.6ZM79.2665 8.66667L77.9332 4.8C77.5332 5.86666 76.9999 7.46666 76.5999 8.66667H79.2665Z" fill="white"/>
<path d="M97.666 13.6H94.5993L88.5993 4.8V13.6H85.666V0.133331H88.7327L94.7327 8.93333V0.133331H97.666V13.6Z" fill="white"/>
<path d="M5.93248 28.1333H3.39916V31.4667H0.46582V18.1333H5.79915C8.46581 18.1333 10.7325 20.4 10.7325 23.2C10.8658 26 8.59914 28.1333 5.93248 28.1333ZM7.93248 23.2C7.93248 21.7333 6.99915 20.5333 5.79915 20.5333H3.26582V25.8667H5.79915C6.99915 25.8667 7.93248 24.6667 7.93248 23.2Z" fill="white"/>
<path d="M25.799 31.4667H22.7324L21.6657 28.9333H17.1324L16.0657 31.4667H12.999L18.4657 18H20.3324L25.799 31.4667ZM20.7324 26.5333L19.399 22.6667C18.999 23.7333 18.4657 25.3333 18.0657 26.5333H20.7324Z" fill="white"/>
<path d="M36.999 27.2L39.9323 31.4667H36.7323L34.3323 27.8667H32.199V31.4667H29.2656V18.1333H34.599C37.399 18.1333 39.5323 20.2667 39.5323 23.0667C39.5323 24.8 38.599 26.4 36.999 27.2ZM32.0656 25.4667H34.599C35.799 25.4667 36.7323 24.4 36.7323 22.9333C36.7323 21.4667 35.799 20.4 34.599 20.4H32.0656V25.4667Z" fill="white"/>
<path d="M52.9997 20.5333H49.133V31.6H46.1997V20.5333H42.333V18.1333H52.9997V20.5333Z" fill="white"/>
<path d="M68.7324 31.4667H65.6658L59.6658 22.6667V31.4667H56.7324V18.1333H59.7991L65.7991 26.9333V18.1333H68.7324V31.4667Z" fill="white"/>
<path d="M83.3994 29.2V31.6H73.666V18.1333H82.9993V20.5333H76.466V23.4667H81.7994V25.8667H76.466V29.2H83.3994Z" fill="white"/>
<path d="M95.5321 27.2L98.4655 31.4667H95.2655L92.8655 27.8667H90.7322V31.4667H87.7988V18.1333H93.1322C95.9322 18.1333 98.0655 20.2667 98.0655 23.0667C97.9322 24.8 96.9988 26.4 95.5321 27.2ZM90.5988 25.4667H93.1322C94.3322 25.4667 95.2655 24.4 95.2655 22.9333C95.2655 21.4667 94.3322 20.4 93.1322 20.4H90.5988V25.4667Z" fill="white"/>
<path d="M111.933 27.8667C111.933 30.5333 109.666 31.7333 106.733 31.7333C104.333 31.7333 102.866 30.8 101.399 29.2L103.399 27.2C103.933 28.2667 105.399 29.3333 106.733 29.3333C107.666 29.3333 108.999 29.0667 108.999 27.8667C108.999 26.6667 107.666 26.2667 106.599 25.8667C104.599 25.2 102.066 24.2667 102.066 21.7333C102.066 19.3333 104.333 18 106.733 18C108.733 18 110.599 18.9333 112.066 20.5333L110.199 22.4C109.533 21.6 108.333 20.2667 106.866 20.2667C106.066 20.2667 105.133 20.6667 105.133 21.6C105.133 22.6667 106.466 23.2 107.533 23.4667C109.533 24.1333 111.933 25.2 111.933 27.8667Z" fill="white"/>
<path d="M108.733 9.86667C109.133 9.46667 109.533 9.06667 109.8 8.8L110.333 8.26667L108.466 6.26667L107.933 6.8C107.666 7.06667 107.266 7.46667 106.866 7.86667C105.4 6.26667 104.2 4.93333 103.933 4.66667C103.533 4.26667 103.266 3.86667 103.266 3.46667C103.266 3.33333 103.266 3.06667 103.533 2.8C103.666 2.53333 103.933 2.53334 104.066 2.53334C104.333 2.53334 104.6 2.53334 105.133 3.2L107.133 1.46667C106.466 0.666669 105.533 -0.133331 104.066 -0.133331C103.133 -0.133331 102.2 0.266669 101.533 1.06667C100.866 1.86667 100.6 2.93334 100.733 3.86667C100.866 4.8 101.266 5.33333 101.666 5.86667C101.266 6.26667 100.866 6.53333 100.6 6.8C98.7329 8.53333 98.9996 10.9333 100.2 12.2667C100.866 13.0667 101.933 13.6 103 13.6C103.933 13.6 104.866 13.2 105.666 12.6667C105.933 12.5333 106.333 12 106.866 11.6C107.133 11.8667 108.066 12.8 108.733 13.4667H112.333C111.266 12.4 109.666 10.6667 108.733 9.86667ZM103.933 10.9333C103.666 11.2 103.4 11.2 103 11.2C102.733 11.2 102.333 11.0667 102.066 10.8C101.8 10.4 101.533 9.73333 102.333 8.93333C102.733 8.66667 103 8.26667 103.4 8C103.8 8.53333 104.466 9.06667 105.133 9.73333C104.6 10.2667 104.066 10.6667 103.933 10.9333Z" fill="#BE800E"/>
</svg>
