<svg width="70" height="70" viewBox="0 0 70 70" fill="none" xmlns="http://www.w3.org/2000/svg">
<path d="M61.9778 58.3314H49.7866C48.5791 58.3314 47.5991 57.3514 47.5991 56.144C47.5991 54.9365 48.5791 53.9565 49.7866 53.9565H60.4437L64.6873 42.2903H5.30888L9.55249 53.9565H20.2126C21.42 53.9565 22.4 54.9365 22.4 56.144C22.4 57.3514 21.42 58.3314 20.2126 58.3314H8.02129C7.10257 58.3314 6.2801 57.7568 5.96511 56.8906L0.131972 40.8495C-0.110103 40.1787 -0.0138565 39.432 0.39738 38.8458C0.8057 38.2625 1.47359 37.9154 2.18815 37.9154H67.811C68.5255 37.9154 69.1934 38.2625 69.6018 38.8487C70.013 39.432 70.1092 40.1816 69.8672 40.8524L64.034 56.8935C63.719 57.7568 62.8966 58.3314 61.9778 58.3314Z" fill="#EB5757"/>
<path d="M47.3979 69.9977C47.2871 69.9977 47.1762 69.9889 47.0625 69.9714C45.8696 69.7877 45.0501 68.6706 45.2338 67.4778L47.7625 51.04H22.2367L24.7653 67.4778C24.9491 68.6736 24.1295 69.7877 22.9366 69.9714C21.7438 70.1668 20.6238 69.3385 20.443 68.1427L17.5264 49.185C17.4301 48.5551 17.611 47.9105 18.028 47.4263C18.4451 46.9422 19.0488 46.6651 19.6876 46.6651H50.3116C50.9503 46.6651 51.5569 46.9451 51.9711 47.4293C52.3852 47.9134 52.569 48.5551 52.4727 49.188L49.5562 68.1457C49.3928 69.2248 48.4595 69.9977 47.3979 69.9977Z" fill="#EB5757"/>
<path d="M65.6236 41.5611C64.4161 41.5611 63.4361 40.5812 63.4361 39.3737C63.4361 33.6018 60.3504 28.1391 55.3835 25.1146C54.351 24.4846 54.0244 23.1401 54.6543 22.1076C55.2843 21.0751 56.6288 20.7485 57.6613 21.3785C63.9203 25.1933 67.8081 32.0881 67.8081 39.3737C67.811 40.5812 66.831 41.5611 65.6236 41.5611Z" fill="#EB5757"/>
<path d="M53.9573 26.2491C56.3734 26.2491 58.3321 24.2904 58.3321 21.8743C58.3321 19.4581 56.3734 17.4994 53.9573 17.4994C51.5411 17.4994 49.5824 19.4581 49.5824 21.8743C49.5824 24.2904 51.5411 26.2491 53.9573 26.2491Z" fill="#EB5757"/>
<path d="M34.9996 23.3326C28.5656 23.3326 23.3333 18.1002 23.3333 11.6663C23.3333 5.23233 28.5656 0 34.9996 0C41.4335 0 46.6658 5.23233 46.6658 11.6663C46.6658 18.1002 41.4335 23.3326 34.9996 23.3326ZM34.9996 4.37485C30.9776 4.37485 27.7081 7.64725 27.7081 11.6663C27.7081 15.6853 30.9776 18.9577 34.9996 18.9577C39.0215 18.9577 42.291 15.6853 42.291 11.6663C42.291 7.64725 39.0215 4.37485 34.9996 4.37485Z" fill="#EB5757"/>
<path d="M56.8738 42.2903C55.6664 42.2903 54.6864 41.3103 54.6864 40.1028C54.6864 34.8763 50.4341 30.624 45.2076 30.624H24.7916C19.5651 30.624 15.3127 34.8763 15.3127 40.1028C15.3127 41.3103 14.3328 42.2903 13.1253 42.2903C11.9178 42.2903 10.9379 41.3103 10.9379 40.1028C10.9379 32.4643 17.1531 26.2491 24.7916 26.2491H45.2076C52.8461 26.2491 59.0613 32.4643 59.0613 40.1028C59.0613 41.3103 58.0813 42.2903 56.8738 42.2903Z" fill="#EB5757"/>
</svg>
