<svg width="70" height="64" viewBox="0 0 70 64" fill="none" xmlns="http://www.w3.org/2000/svg">
<path d="M32.3617 8.29183C32.3617 7.27749 33.184 6.4552 34.1984 6.4552C35.2127 6.4552 36.035 7.27749 36.035 8.29183C36.035 9.30618 35.2127 10.1285 34.1984 10.1285C33.184 10.1285 32.3617 9.30618 32.3617 8.29183Z" fill="#EB5757"/>
<path fill-rule="evenodd" clip-rule="evenodd" d="M27.6275 4.08808H26.6446C24.0923 1.79528 20.7775 0.527987 17.3405 0.537406L10.5264 0.537406C9.09833 0.53901 7.72917 1.10704 6.71934 2.11687C5.7095 3.1267 5.14148 4.4966 5.13987 5.92472L5.13987 14.2104C5.14148 15.6385 5.7095 17.0076 6.71934 18.0175C7.72917 19.0273 9.09907 19.5953 10.5272 19.5969H14.4085C14.1392 19.9259 13.9191 20.2931 13.7558 20.6873C13.5373 21.2148 13.4249 21.7801 13.4249 22.351C13.4249 22.9219 13.5373 23.4872 13.7558 24.0146C13.9742 24.542 14.2945 25.0213 14.6981 25.4249C15.1018 25.8286 15.5811 26.1488 16.1085 26.3673C16.6359 26.5858 17.2012 26.6982 17.7721 26.6982C18.343 26.6982 18.9083 26.5858 19.4357 26.3673C19.9632 26.1488 20.4424 25.8286 20.8461 25.4249L26.6741 19.5969H27.6275V20.1274C27.6275 20.6145 27.821 21.0817 28.1654 21.4261C28.5099 21.7706 28.977 21.9641 29.4641 21.9641H40.1162C41.1305 21.9641 41.9528 21.1418 41.9528 20.1274C41.9528 19.1131 41.1305 18.2908 40.1162 18.2908H31.3008V5.39423H60.2367C61.251 5.39423 62.0733 4.57195 62.0733 3.5576C62.0733 2.54325 61.251 1.72097 60.2367 1.72097H29.4641C28.977 1.72097 28.5099 1.91447 28.1654 2.2589C27.821 2.60334 27.6275 3.07049 27.6275 3.5576V4.08808ZM21.28 4.98816C20.032 4.47123 18.6939 4.20697 17.3432 4.21067L17.3414 4.21067H10.5276C10.0731 4.21129 9.63739 4.39212 9.31599 4.71352C8.99466 5.03486 8.81383 5.47047 8.81313 5.92488L8.81313 14.2089C8.81383 14.6633 8.99466 15.0995 9.31599 15.4208C9.63746 15.7423 10.0733 15.9231 10.528 15.9237H18.8121C19.1753 15.9237 19.5304 16.0314 19.8325 16.2332C20.1345 16.435 20.3699 16.7218 20.509 17.0575C20.648 17.3931 20.6844 17.7624 20.6135 18.1186C20.5426 18.4749 20.3677 18.8022 20.1108 19.059L17.2954 21.8743C17.169 22.0007 17.098 22.1722 17.098 22.351C17.098 22.5298 17.169 22.7012 17.2954 22.8277C17.4218 22.9541 17.5933 23.0251 17.7721 23.0251C17.9509 23.0251 18.1224 22.9541 18.2488 22.8277L24.6147 16.4616C24.7853 16.2911 24.9878 16.1558 25.2106 16.0635C25.4335 15.9712 25.6723 15.9237 25.9135 15.9237H27.6275V7.76135H25.9135C25.6723 7.76136 25.4335 7.71386 25.2106 7.62156C24.9878 7.52927 24.7853 7.39399 24.6147 7.22344L24.6135 7.22216C23.661 6.2644 22.5279 5.50508 21.28 4.98816Z" fill="#EB5757"/>
<path d="M52.5258 34.0338C53.4279 34.4976 53.7832 35.6049 53.3194 36.507C52.8556 37.4091 51.7483 37.7644 50.8462 37.3006C49.9441 36.8368 49.5888 35.7296 50.0526 34.8274C50.5164 33.9253 51.6237 33.57 52.5258 34.0338Z" fill="#EB5757"/>
<path fill-rule="evenodd" clip-rule="evenodd" d="M58.429 31.7456L58.8785 30.8714C62.0846 29.6499 64.7273 27.2813 66.2904 24.2203L69.406 18.1603C70.0576 16.8895 70.1785 15.4121 69.7421 14.0523C69.3057 12.6925 68.3471 11.5609 67.0778 10.9065L59.709 7.11802C58.4382 6.46646 56.9608 6.3456 55.601 6.78196C54.2411 7.21832 53.1096 8.17691 52.4552 9.44626L50.6805 12.8981C50.5111 12.5082 50.2851 12.1445 50.0092 11.819C49.64 11.3836 49.1887 11.0251 48.681 10.7641C48.1733 10.503 47.6191 10.3445 47.0501 10.2977C46.4812 10.2508 45.9086 10.3165 45.365 10.4909C44.8214 10.6653 44.3175 10.9451 43.882 11.3143C43.4466 11.6835 43.0881 12.1348 42.827 12.6425C42.566 13.1503 42.4075 13.7044 42.3607 14.2734C42.3138 14.8424 42.3795 15.415 42.5539 15.9586L45.0722 23.8065L44.6363 24.6544L44.1645 24.4118C43.7313 24.1891 43.2274 24.1476 42.7636 24.2964C42.2998 24.4452 41.9141 24.7722 41.6914 25.2054L36.8209 34.6788C36.3571 35.5809 36.7124 36.6881 37.6145 37.1519C38.5166 37.6157 39.6239 37.2604 40.0877 36.3583L44.1184 28.5184L55.5879 34.4151L42.3573 60.1492C41.8935 61.0513 42.2489 62.1585 43.151 62.6223C44.0531 63.0861 45.1603 62.7308 45.6241 61.8287L59.6945 34.4613C59.9172 34.0281 59.9587 33.5241 59.8098 33.0603C59.661 32.5965 59.334 32.2108 58.9008 31.9881L58.429 31.7456ZM60.5309 25.6889C61.5612 24.8154 62.4081 23.7462 63.0224 22.5432L63.0232 22.5416L66.1387 16.4818C66.346 16.0773 66.3844 15.6071 66.2455 15.1743C66.1066 14.7416 65.8019 14.3816 65.3981 14.1732L58.0308 10.3855C57.6263 10.1784 57.1557 10.1397 56.723 10.2786C56.2901 10.4175 55.93 10.7224 55.7216 11.1265L51.9338 18.494C51.7678 18.817 51.5096 19.0836 51.192 19.2599C50.8744 19.4363 50.5117 19.5145 50.1496 19.4847C49.7876 19.4548 49.4425 19.3183 49.1581 19.0924C48.8736 18.8665 48.6626 18.5612 48.5516 18.2154L47.3352 14.4243C47.2805 14.254 47.1605 14.1125 47.0015 14.0307C46.8425 13.949 46.6575 13.9337 46.4873 13.9884C46.317 14.043 46.1755 14.163 46.0937 14.322C46.012 14.481 45.9967 14.666 46.0513 14.8363L48.8023 23.4086C48.8759 23.6382 48.9037 23.8802 48.8839 24.1205C48.8641 24.3609 48.7971 24.595 48.6868 24.8095L47.9031 26.3339L55.1622 30.066L55.946 28.5417C56.0562 28.3271 56.2077 28.1365 56.3916 27.9805C56.5756 27.8245 56.7885 27.7063 57.0182 27.6326L57.0199 27.632C58.3072 27.2228 59.5006 26.5624 60.5309 25.6889Z" fill="#EB5757"/>
<path d="M18.7933 37.9896C17.8912 38.4534 16.7839 38.0981 16.3201 37.196C15.8563 36.2939 16.2115 35.1867 17.1136 34.7229C18.0157 34.259 19.123 34.6143 19.5868 35.5164C20.0506 36.4185 19.6953 37.5258 18.7933 37.9896Z" fill="#EB5757"/>
<path fill-rule="evenodd" clip-rule="evenodd" d="M17.2194 44.1221L17.6689 44.9963C16.7969 48.3145 17.1855 51.8419 18.7655 54.8943L21.8812 60.9543C22.5356 62.2236 23.6669 63.1815 25.0267 63.6179C26.3865 64.0542 27.8646 63.933 29.1354 63.2814L36.5041 59.4927C37.7734 58.8383 38.7314 57.7071 39.1677 56.3473C39.604 54.9874 39.4828 53.5094 38.8312 52.2386L37.0565 48.7868C37.4722 48.8759 37.8994 48.9037 38.3247 48.8687C38.8936 48.8218 39.4478 48.6633 39.9555 48.4023C40.4632 48.1413 40.9145 47.7828 41.2837 47.3473C41.6529 46.9118 41.9327 46.4079 42.1071 45.8643C42.2815 45.3207 42.3472 44.7481 42.3003 44.1791C42.2534 43.6102 42.0949 43.056 41.8339 42.5483C41.5728 42.0406 41.2144 41.5893 40.7789 41.2201C40.3434 40.8509 39.8395 40.5711 39.2959 40.3967L31.448 37.8785L31.012 37.0307L31.4838 36.7881C31.917 36.5654 32.244 36.1797 32.3928 35.7158C32.5417 35.252 32.5001 34.7481 32.2774 34.3149L27.4067 24.8417C26.9429 23.9396 25.8356 23.5843 24.9335 24.0481C24.0314 24.5119 23.6761 25.6192 24.14 26.5213L28.1708 34.3611L16.7014 40.2581L3.4704 14.5244C3.00659 13.6223 1.89931 13.267 0.997212 13.7308C0.0951192 14.1946 -0.260179 15.3019 0.203634 16.204L14.2745 43.5711C14.4972 44.0043 14.8829 44.3313 15.3467 44.4801C15.8105 44.6289 16.3145 44.5874 16.7477 44.3647L17.2194 44.1221ZM20.9223 49.3556C21.0332 50.7019 21.4101 52.0127 22.031 53.2123L22.0318 53.2139L25.1474 59.2736C25.3558 59.6775 25.7159 59.9824 26.1487 60.1212C26.5814 60.2601 27.0515 60.2217 27.4559 60.0145L34.8232 56.2267C35.227 56.0183 35.5322 55.658 35.6711 55.2253C35.81 54.7924 35.7715 54.3221 35.5641 53.9175L31.7761 46.5501C31.61 46.2271 31.5435 45.862 31.5848 45.5011C31.6262 45.1402 31.7737 44.7997 32.0086 44.5226C32.2435 44.2455 32.5553 44.0443 32.9045 43.9444C33.2538 43.8445 33.6248 43.8505 33.9707 43.9615L37.7617 45.178C37.932 45.2327 38.117 45.2174 38.276 45.1357C38.435 45.0539 38.555 44.9123 38.6096 44.7421C38.6642 44.5718 38.649 44.3869 38.5672 44.2279C38.4855 44.0688 38.3439 43.9488 38.1737 43.8942L29.6013 41.1437C29.3716 41.07 29.1587 40.9517 28.9747 40.7958C28.7907 40.6398 28.6393 40.4491 28.529 40.2346L27.7453 38.7103L20.4862 42.4425L21.27 43.9669C21.3803 44.1814 21.4472 44.4155 21.467 44.6558C21.4868 44.8962 21.4591 45.1382 21.3854 45.3678L21.3849 45.3695C20.9686 46.6546 20.8114 48.0094 20.9223 49.3556Z" fill="#EB5757"/>
</svg>
